<svg width="21" height="20" viewBox="0 0 21 20" fill="none" xmlns="http://www.w3.org/2000/svg">
<g clip-path="url(#clip0_278_2797)">
<path d="M19.6667 18.3333H4.66667C4.00363 18.3333 3.36774 18.0699 2.8989 17.6011C2.43006 17.1323 2.16667 16.4964 2.16667 15.8333V0.833333C2.16667 0.61232 2.07887 0.400358 1.92259 0.244078C1.76631 0.0877974 1.55435 0 1.33333 0C1.11232 0 0.900358 0.0877974 0.744078 0.244078C0.587797 0.400358 0.5 0.61232 0.5 0.833333L0.5 15.8333C0.501323 16.938 0.940735 17.997 1.72185 18.7782C2.50296 19.5593 3.562 19.9987 4.66667 20H19.6667C19.8877 20 20.0996 19.9122 20.2559 19.7559C20.4122 19.5996 20.5 19.3877 20.5 19.1667C20.5 18.9457 20.4122 18.7337 20.2559 18.5774C20.0996 18.4211 19.8877 18.3333 19.6667 18.3333Z" fill="#777777"/>
<path d="M5.50032 16.6665C5.72134 16.6665 5.9333 16.5787 6.08958 16.4224C6.24586 16.2661 6.33366 16.0542 6.33366 15.8332V9.99984C6.33366 9.77882 6.24586 9.56686 6.08958 9.41058C5.9333 9.2543 5.72134 9.1665 5.50032 9.1665C5.27931 9.1665 5.06735 9.2543 4.91107 9.41058C4.75479 9.56686 4.66699 9.77882 4.66699 9.99984V15.8332C4.66699 16.0542 4.75479 16.2661 4.91107 16.4224C5.06735 16.5787 5.27931 16.6665 5.50032 16.6665Z" fill="#777777"/>
<path d="M8.83301 8.33333V15.8333C8.83301 16.0543 8.92081 16.2663 9.07709 16.4226C9.23337 16.5789 9.44533 16.6667 9.66635 16.6667C9.88736 16.6667 10.0993 16.5789 10.2556 16.4226C10.4119 16.2663 10.4997 16.0543 10.4997 15.8333V8.33333C10.4997 8.11232 10.4119 7.90036 10.2556 7.74408C10.0993 7.5878 9.88736 7.5 9.66635 7.5C9.44533 7.5 9.23337 7.5878 9.07709 7.74408C8.92081 7.90036 8.83301 8.11232 8.83301 8.33333Z" fill="#777777"/>
<path d="M13 10.8333V15.8333C13 16.0543 13.0878 16.2663 13.2441 16.4226C13.4004 16.5789 13.6123 16.6667 13.8333 16.6667C14.0544 16.6667 14.2663 16.5789 14.4226 16.4226C14.5789 16.2663 14.6667 16.0543 14.6667 15.8333V10.8333C14.6667 10.6123 14.5789 10.4004 14.4226 10.2441C14.2663 10.0878 14.0544 10 13.8333 10C13.6123 10 13.4004 10.0878 13.2441 10.2441C13.0878 10.4004 13 10.6123 13 10.8333Z" fill="#777777"/>
<path d="M17.167 7.49984V15.8332C17.167 16.0542 17.2548 16.2661 17.4111 16.4224C17.5674 16.5787 17.7793 16.6665 18.0003 16.6665C18.2213 16.6665 18.4333 16.5787 18.5896 16.4224C18.7459 16.2661 18.8337 16.0542 18.8337 15.8332V7.49984C18.8337 7.27882 18.7459 7.06686 18.5896 6.91058C18.4333 6.7543 18.2213 6.6665 18.0003 6.6665C17.7793 6.6665 17.5674 6.7543 17.4111 6.91058C17.2548 7.06686 17.167 7.27882 17.167 7.49984Z" fill="#777777"/>
<path d="M5.49966 7.50001C5.72066 7.49997 5.93258 7.41214 6.08883 7.25585L9.07716 4.26751C9.23599 4.1162 9.44696 4.0318 9.66633 4.0318C9.8857 4.0318 10.0967 4.1162 10.2555 4.26751L12.0655 6.07751C12.5343 6.54619 13.1701 6.80948 13.833 6.80948C14.4959 6.80948 15.1317 6.54619 15.6005 6.07751L20.2555 1.42251C20.4073 1.26535 20.4913 1.05484 20.4894 0.836346C20.4875 0.617849 20.3998 0.408838 20.2453 0.254332C20.0908 0.0998249 19.8818 0.0121841 19.6633 0.0102854C19.4448 0.00838673 19.2343 0.0923821 19.0772 0.24418L14.4222 4.89835C14.2659 5.05457 14.054 5.14234 13.833 5.14234C13.612 5.14234 13.4001 5.05457 13.2438 4.89835L11.4338 3.08918C10.965 2.6205 10.3292 2.35721 9.66633 2.35721C9.00342 2.35721 8.36765 2.6205 7.89883 3.08918L4.91049 6.07751C4.79399 6.19406 4.71465 6.34253 4.68251 6.50415C4.65037 6.66578 4.66687 6.83331 4.72993 6.98556C4.79299 7.13781 4.89977 7.26794 5.03678 7.35952C5.17379 7.45109 5.33487 7.49998 5.49966 7.50001Z" fill="#777777"/>
</g>
<defs>
<clipPath id="clip0_278_2797">
<rect width="20" height="20" fill="white" transform="translate(0.5)"/>
</clipPath>
</defs>
</svg>
