<svg width="18" height="20" viewBox="0 0 18 20" fill="none" xmlns="http://www.w3.org/2000/svg">
<path d="M14.6141 19.1976C13.5254 20.253 12.3366 20.0864 11.1923 19.5864C9.98138 19.0754 8.87041 19.0532 7.5928 19.5864C5.993 20.2752 5.14866 20.0752 4.19323 19.1976C-1.22831 13.6094 -0.428413 5.09936 5.72637 4.78828C7.22618 4.86605 8.27049 5.6104 9.14816 5.67706C10.4591 5.41043 11.7145 4.64386 13.1143 4.74385C14.7919 4.87716 16.0584 5.54374 16.8916 6.74359C13.4254 8.82111 14.2475 13.3872 17.4249 14.6648C16.7916 16.3313 15.9695 17.9866 14.603 19.2087L14.6141 19.1976ZM9.03706 4.72163C8.87041 2.24416 10.8813 0.199975 13.1921 0C13.5143 2.8663 10.5924 4.99937 9.03706 4.72163Z" fill="black"/>
</svg>
