<svg width="20" height="20" viewBox="0 0 20 20" fill="none" xmlns="http://www.w3.org/2000/svg">
<g clip-path="url(#clip0_281_8555)">
<path d="M16.7811 20C16.4728 19.9992 16.1678 19.9372 15.8835 19.8178C15.5993 19.6984 15.3416 19.5238 15.1253 19.3042L10.0003 14.2092L4.87527 19.3075C4.54612 19.6414 4.12401 19.8685 3.66395 19.959C3.20389 20.0495 2.72722 19.9993 2.2961 19.815C1.8607 19.6399 1.48822 19.3375 1.22731 18.9474C0.966408 18.5573 0.829197 18.0976 0.833599 17.6283V4.16667C0.833599 3.0616 1.27259 2.00179 2.05399 1.22039C2.83539 0.438987 3.8952 0 5.00027 0L15.0003 0C15.5474 0 16.0893 0.107774 16.5948 0.317169C17.1003 0.526563 17.5596 0.833478 17.9465 1.22039C18.3335 1.6073 18.6404 2.06663 18.8498 2.57215C19.0592 3.07768 19.1669 3.61949 19.1669 4.16667V17.6283C19.1716 18.0972 19.0349 18.5567 18.7746 18.9467C18.5143 19.3368 18.1425 19.6393 17.7078 19.815C17.4143 19.9377 17.0992 20.0006 16.7811 20ZM5.00027 1.66667C4.33722 1.66667 3.70134 1.93006 3.2325 2.3989C2.76366 2.86774 2.50027 3.50363 2.50027 4.16667V17.6283C2.49996 17.7672 2.54082 17.903 2.61768 18.0187C2.69454 18.1343 2.80395 18.2246 2.93209 18.2781C3.06023 18.3316 3.20135 18.3459 3.33763 18.3193C3.47391 18.2926 3.59923 18.2262 3.69777 18.1283L9.41693 12.4442C9.57307 12.289 9.78428 12.2018 10.0044 12.2018C10.2246 12.2018 10.4358 12.289 10.5919 12.4442L16.3044 18.1267C16.403 18.2245 16.5283 18.291 16.6646 18.3176C16.8008 18.3443 16.942 18.33 17.0701 18.2765C17.1982 18.2229 17.3077 18.1327 17.3845 18.017C17.4614 17.9014 17.5022 17.7655 17.5019 17.6267V4.16667C17.5019 3.50363 17.2385 2.86774 16.7697 2.3989C16.3009 1.93006 15.665 1.66667 15.0019 1.66667H5.00027Z" fill="white"/>
</g>
<defs>
<clipPath id="clip0_281_8555">
<rect width="20" height="20" fill="white"/>
</clipPath>
</defs>
</svg>
