<svg width="8" height="8" viewBox="0 0 8 8" fill="none" xmlns="http://www.w3.org/2000/svg">
<path fill-rule="evenodd" clip-rule="evenodd" d="M6.176 1.69398C6.192 1.72194 6.22 1.74192 6.256 1.74192C7.216 1.74192 8 2.52505 8 3.48399V5.85735C8 6.81628 7.216 7.59941 6.256 7.59941H1.744C0.78 7.59941 0 6.81628 0 5.85735V3.48399C0 2.52505 0.78 1.74192 1.744 1.74192C1.776 1.74192 1.808 1.72594 1.82 1.69398L1.844 1.64603C1.85779 1.61701 1.87194 1.5872 1.8863 1.55694C1.98864 1.3414 2.10185 1.10294 2.172 0.962788C2.356 0.603188 2.668 0.40341 3.056 0.399414H4.94C5.328 0.40341 5.644 0.603188 5.828 0.962788C5.89101 1.08866 5.987 1.29142 6.07952 1.48684C6.0986 1.52714 6.11753 1.56713 6.136 1.60607L6.176 1.69398ZM5.88398 3.22844C5.88398 3.42822 6.04398 3.58804 6.24398 3.58804C6.44398 3.58804 6.60798 3.42822 6.60798 3.22844C6.60798 3.02866 6.44398 2.86484 6.24398 2.86484C6.04398 2.86484 5.88398 3.02866 5.88398 3.22844ZM3.30805 3.84784C3.49605 3.66005 3.74005 3.56016 4.00005 3.56016C4.26005 3.56016 4.50405 3.66005 4.68805 3.84384C4.87205 4.02764 4.97204 4.27137 4.97204 4.53108C4.96805 5.06648 4.53605 5.502 4.00005 5.502C3.74005 5.502 3.49605 5.40211 3.31205 5.21831C3.12805 5.03452 3.02805 4.79079 3.02805 4.53108V4.52708C3.02405 4.27536 3.12405 4.03163 3.30805 3.84784ZM5.108 5.64196C4.824 5.92564 4.432 6.10145 4 6.10145C3.58 6.10145 3.188 5.93763 2.888 5.64196C2.592 5.34229 2.428 4.95073 2.428 4.53119C2.424 4.11565 2.588 3.72409 2.884 3.42442C3.184 3.12476 3.58 2.96094 4 2.96094C4.42 2.96094 4.816 3.12476 5.112 3.42043C5.408 3.72009 5.572 4.11565 5.572 4.53119C5.568 4.96671 5.392 5.35827 5.108 5.64196Z" fill="white"/>
</svg>
