<svg width="17" height="16" viewBox="0 0 17 16" fill="none" xmlns="http://www.w3.org/2000/svg">
<path d="M8.5 0C9.70811 0.000698213 10.9004 0.275006 11.9873 0.802337C13.0743 1.32967 14.0277 2.09633 14.776 3.04479C15.5243 3.99324 16.0481 5.09886 16.308 6.27868C16.5679 7.45849 16.5573 8.68186 16.2769 9.85697C15.9964 11.0321 15.4535 12.1284 14.6888 13.0637C13.9241 13.999 12.9575 14.749 11.8616 15.2573C10.7656 15.7657 9.56877 16.0192 8.36083 15.9989C7.15289 15.9785 5.96524 15.6849 4.887 15.14L4.766 15.075L1.121 15.985C1.05085 16.0026 0.97771 16.0048 0.906625 15.9915C0.835539 15.9781 0.768201 15.9495 0.709258 15.9075C0.650315 15.8656 0.601171 15.8114 0.565216 15.7486C0.529261 15.6859 0.507351 15.6161 0.501 15.544V15.462L0.515 15.379L1.425 11.735L1.362 11.615C0.904384 10.7142 0.62269 9.73433 0.532 8.728L0.507 8.346L0.5 8C0.5 5.87827 1.34285 3.84344 2.84315 2.34315C4.34344 0.842855 6.37827 0 8.5 0ZM9 9H6L5.91 9.008C5.79472 9.02887 5.69043 9.08957 5.61532 9.17949C5.54022 9.26941 5.49908 9.38284 5.49908 9.5C5.49908 9.61716 5.54022 9.73059 5.61532 9.82051C5.69043 9.91043 5.79472 9.97113 5.91 9.992L6 10H9L9.09 9.992C9.20528 9.97113 9.30957 9.91043 9.38468 9.82051C9.45978 9.73059 9.50092 9.61716 9.50092 9.5C9.50092 9.38284 9.45978 9.26941 9.38468 9.17949C9.30957 9.08957 9.20528 9.02887 9.09 9.008L9 9ZM11 6H6L5.91 6.008C5.79472 6.02887 5.69043 6.08957 5.61532 6.17949C5.54022 6.26941 5.49908 6.38284 5.49908 6.5C5.49908 6.61716 5.54022 6.73059 5.61532 6.82051C5.69043 6.91043 5.79472 6.97113 5.91 6.992L6 7H11L11.09 6.992C11.2053 6.97113 11.3096 6.91043 11.3847 6.82051C11.4598 6.73059 11.5009 6.61716 11.5009 6.5C11.5009 6.38284 11.4598 6.26941 11.3847 6.17949C11.3096 6.08957 11.2053 6.02887 11.09 6.008L11 6Z" fill="#6943FF"/>
</svg>
