<svg width="35" height="30" viewBox="0 0 35 30" fill="none" xmlns="http://www.w3.org/2000/svg">
<g clip-path="url(#clip0_247_2441)">
<path d="M34.9224 23.6557C34.79 24.2047 34.7053 24.7705 34.5164 25.2992C32.775 30.1703 26.7247 31.5772 23.0018 27.9876C19.8173 24.917 20.3752 19.4836 24.1174 17.1226C28.0415 14.6469 33.068 16.4174 34.5649 20.8128C34.7282 21.2912 34.805 21.7978 34.9215 22.2921V23.6557H34.9224ZM27.9559 18.0997C25.2913 18.0441 23.0645 20.2383 23.0195 22.9646C22.9762 25.5798 25.1377 27.8234 27.7582 27.8843C30.4837 27.9479 32.7459 25.8252 32.8085 23.1456C32.873 20.3795 30.7361 18.1579 27.9568 18.0997H27.9559Z" fill="#6943FF"/>
<path d="M19.5852 12.2143C18.6734 12.7836 17.8217 13.3167 16.9303 13.8737C17.053 13.9549 17.1465 14.0246 17.2471 14.0828C18.3363 14.7166 19.4307 15.3414 20.5146 15.9831C21.5896 16.6195 21.9523 17.7519 21.4228 18.8154C21.3089 19.0449 21.1403 19.2558 20.9612 19.4421C18.805 21.6883 16.6302 23.9169 14.4863 26.1746C13.1862 27.5444 11.2268 26.9046 10.82 25.3926C10.5949 24.5577 10.8508 23.8551 11.4395 23.247C12.8385 21.8013 14.233 20.352 15.6284 18.9037C15.722 18.8066 15.8129 18.706 15.9276 18.5833C15.8005 18.4977 15.6937 18.4218 15.5834 18.3503C13.8791 17.2426 12.1862 16.1181 10.4678 15.0325C8.34599 13.6927 8.564 11.2258 10.0132 9.73686C10.3036 9.43853 10.639 9.17198 10.9912 8.94957C13.4007 7.42706 15.8173 5.91691 18.2365 4.41029C19.5419 3.5974 20.9541 3.67772 22.0291 4.69361C22.7096 5.33703 23.226 6.14551 23.5031 7.03341C23.6567 7.52503 23.5569 8.10932 23.511 8.64595C23.4334 9.56122 23.308 10.473 23.1977 11.4271C23.91 11.5489 24.5984 11.668 25.2886 11.7828C26.1509 11.9266 27.0141 12.0617 27.8756 12.2082C28.7917 12.3635 29.4034 13.0105 29.4572 13.8684C29.5075 14.6654 28.9797 15.4632 28.1889 15.6256C27.7723 15.7113 27.3116 15.6521 26.8817 15.5859C24.9638 15.2876 23.0503 14.9619 21.135 14.6468C20.1192 14.48 19.504 13.7095 19.5613 12.6768C19.5684 12.5462 19.5737 12.4165 19.5834 12.2143H19.5852Z" fill="#6943FF"/>
<path d="M13.0537 19.5756C12.5356 20.0434 12.0078 20.52 11.4809 20.9957C10.766 19.4829 9.53741 18.4688 7.78983 18.1696C6.57095 17.9604 5.42002 18.2084 4.36706 18.8774C2.23467 20.2314 1.48533 23.0469 2.69363 25.2949C3.40413 26.6171 4.51534 27.4564 5.98489 27.7795C7.44561 28.1007 8.77306 27.7459 9.88427 26.9322C10.4906 27.3858 11.0458 27.8007 11.5939 28.2102C10.1897 29.6744 7.20113 30.6568 4.31499 29.4626C1.51887 28.3055 -0.291368 25.3099 0.038729 22.339C0.392657 19.1546 2.7457 16.6021 5.76777 16.0981C8.98048 15.5623 11.7978 17.2322 13.0537 19.5756Z" fill="#6943FF"/>
<path d="M26.7864 6.98785C25.0371 7.08052 23.3292 5.78838 23.1474 3.85016C22.9647 1.90047 24.3636 0.188201 26.2824 0.0143264C28.1615 -0.1569 29.8941 1.2288 30.0988 2.98873C30.353 5.1679 28.7334 6.9446 26.7864 6.98785Z" fill="#6943FF"/>
</g>
<defs>
<clipPath id="clip0_247_2441">
<rect width="34.9223" height="30" fill="white"/>
</clipPath>
</defs>
</svg>
