<svg width="20" height="20" viewBox="0 0 20 20" fill="none" xmlns="http://www.w3.org/2000/svg">
<path d="M5.55625 6.36386C5.46718 7.31386 5.40468 8.99511 5.96562 9.71074C5.96562 9.71074 5.70156 7.86386 8.06875 5.54668C9.02187 4.61386 9.24218 3.34511 8.90937 2.39355C8.72031 1.85449 8.375 1.40918 8.075 1.09824C7.9 0.915426 8.03437 0.613864 8.28906 0.624801C9.82968 0.693551 12.3266 1.12168 13.3875 3.78418C13.8531 4.95293 13.8875 6.16074 13.6656 7.38886C13.525 8.17324 13.025 9.91699 14.1656 10.1311C14.9797 10.2842 15.3734 9.6373 15.55 9.17168C15.6234 8.97793 15.8781 8.92949 16.0156 9.08418C17.3906 10.6482 17.5078 12.4904 17.2234 14.0764C16.6734 17.142 13.5687 19.3732 10.4844 19.3732C6.63125 19.3732 3.56406 17.1685 2.76875 13.1779C2.44843 11.567 2.61093 8.37949 5.09531 6.12949C5.27968 5.96074 5.58125 6.11074 5.55625 6.36386Z" fill="url(#paint0_linear_247_2727)"/>
<defs>
<linearGradient id="paint0_linear_247_2727" x1="2.64673" y1="8.60196" x2="17.3491" y2="8.56867" gradientUnits="userSpaceOnUse">
<stop stop-color="#8769FF"/>
<stop offset="0.98018" stop-color="#6943FF"/>
</linearGradient>
</defs>
</svg>
