<svg width="18" height="18" viewBox="0 0 18 18" fill="none" xmlns="http://www.w3.org/2000/svg">
<path d="M15.75 0H2.25C1.65326 0 1.08097 0.237053 0.65901 0.65901C0.237053 1.08097 0 1.65326 0 2.25L0 15H5.175L8.031 17.4135C8.30174 17.6423 8.64477 17.7679 8.99925 17.7679C9.35373 17.7679 9.69676 17.6423 9.9675 17.4135L12.825 15H18V2.25C18 1.65326 17.7629 1.08097 17.341 0.65901C16.919 0.237053 16.3467 0 15.75 0V0ZM16.5 13.5H12.2745L9 16.2675L5.7255 13.5H1.5V2.25C1.5 2.05109 1.57902 1.86032 1.71967 1.71967C1.86032 1.57902 2.05109 1.5 2.25 1.5H15.75C15.9489 1.5 16.1397 1.57902 16.2803 1.71967C16.421 1.86032 16.5 2.05109 16.5 2.25V13.5Z" fill="#222222"/>
<path d="M9 3.75H4.5V5.25H9V3.75Z" fill="#222222"/>
<path d="M13.5 6.75H4.5V8.25H13.5V6.75Z" fill="#222222"/>
<path d="M13.5 9.75H4.5V11.25H13.5V9.75Z" fill="#222222"/>
</svg>
