<svg width="18" height="16" viewBox="0 0 18 16" fill="none" xmlns="http://www.w3.org/2000/svg">
<path d="M12.4376 0.5C13.8265 0.5 14.9898 1.01389 15.9276 2.04167C16.8654 3.06944 17.334 4.29167 17.3334 5.70833C17.3334 5.95833 17.3195 6.205 17.2917 6.44833C17.264 6.69167 17.2154 6.93111 17.1459 7.16667H11.9376L10.5209 5.04167C10.4515 4.93056 10.3542 4.84028 10.2292 4.77083C10.1042 4.70139 9.9723 4.66667 9.83341 4.66667C9.65286 4.66667 9.48953 4.72222 9.34341 4.83333C9.1973 4.94444 9.09675 5.08333 9.04175 5.25L7.91675 8.625L7.18758 7.54167C7.11814 7.43056 7.02092 7.34028 6.89592 7.27083C6.77092 7.20139 6.63897 7.16667 6.50008 7.16667H0.854248C0.784804 6.93056 0.736192 6.69083 0.708415 6.4475C0.680637 6.20417 0.666748 5.96472 0.666748 5.72917C0.666748 4.29861 1.13203 3.06944 2.06258 2.04167C2.99314 1.01389 4.15286 0.5 5.54175 0.5C6.20841 0.5 6.83703 0.631944 7.42758 0.895833C8.01814 1.15972 8.5423 1.52778 9.00008 2C9.44453 1.52778 9.96203 1.15972 10.5526 0.895833C11.1431 0.631944 11.7715 0.5 12.4376 0.5ZM9.00008 15.5C8.75008 15.5 8.51036 15.4547 8.28091 15.3642C8.05147 15.2736 7.84675 15.1383 7.66675 14.9583L2.08341 9.35417C2.00008 9.27083 1.92369 9.1875 1.85425 9.10417C1.7848 9.02083 1.71536 8.93056 1.64591 8.83333H6.04175L7.45841 10.9583C7.52786 11.0694 7.62508 11.1597 7.75008 11.2292C7.87508 11.2986 8.00703 11.3333 8.14592 11.3333C8.32647 11.3333 8.49314 11.2778 8.64591 11.1667C8.79869 11.0556 8.90286 10.9167 8.95841 10.75L10.0834 7.375L10.7917 8.45833C10.8751 8.56944 10.9792 8.65972 11.1042 8.72917C11.2292 8.79861 11.3612 8.83333 11.5001 8.83333H16.3334L16.1251 9.08333L15.9167 9.33333L10.3126 14.9583C10.132 15.1389 9.93064 15.2744 9.70842 15.365C9.48619 15.4556 9.25008 15.5006 9.00008 15.5Z" fill="url(#paint0_linear_247_2757)"/>
<defs>
<linearGradient id="paint0_linear_247_2757" x1="0.666748" y1="6.88239" x2="17.3333" y2="6.82893" gradientUnits="userSpaceOnUse">
<stop stop-color="#8769FF"/>
<stop offset="0.98018" stop-color="#6943FF"/>
</linearGradient>
</defs>
</svg>
