<svg width="21" height="20" viewBox="0 0 21 20" fill="none" xmlns="http://www.w3.org/2000/svg">
<g clip-path="url(#clip0_278_2791)">
<path d="M11.615 0.694498C11.309 0.419028 10.9118 0.266602 10.5 0.266602C10.0882 0.266602 9.69105 0.419028 9.385 0.694498L0.5 8.69116V17.3578C0.5 18.0651 0.780952 18.7434 1.28105 19.2435C1.78115 19.7435 2.45942 20.0245 3.16667 20.0245H17.8333C18.5406 20.0245 19.2189 19.7435 19.719 19.2435C20.219 18.7434 20.5 18.0651 20.5 17.3578V8.69116L11.615 0.694498ZM13 18.3553H8V14.167C8 13.504 8.26339 12.8681 8.73223 12.3992C9.20107 11.9304 9.83696 11.667 10.5 11.667C11.163 11.667 11.7989 11.9304 12.2678 12.3992C12.7366 12.8681 13 13.504 13 14.167V18.3553ZM18.8333 17.3553C18.8333 17.6206 18.728 17.8749 18.5404 18.0624C18.3529 18.25 18.0985 18.3553 17.8333 18.3553H14.6667V14.167C14.6667 13.0619 14.2277 12.0021 13.4463 11.2207C12.6649 10.4393 11.6051 10.0003 10.5 10.0003C9.39493 10.0003 8.33512 10.4393 7.55372 11.2207C6.77232 12.0021 6.33333 13.0619 6.33333 14.167V18.3553H3.16667C2.90145 18.3553 2.6471 18.25 2.45956 18.0624C2.27202 17.8749 2.16667 17.6206 2.16667 17.3553V9.43283L10.5 1.93283L18.8333 9.43283V17.3553Z" fill="#777777"/>
</g>
<defs>
<clipPath id="clip0_278_2791">
<rect width="20" height="20" fill="white" transform="translate(0.5)"/>
</clipPath>
</defs>
</svg>
