<svg width="24" height="24" viewBox="0 0 24 24" fill="none" xmlns="http://www.w3.org/2000/svg">
<path d="M8.1913 24H8.3432C13.5311 24 16.0316 21.9552 16.4639 17.3749C16.5107 16.8958 16.1601 16.4635 15.6694 16.4168C15.202 16.37 14.758 16.7322 14.7113 17.2113C14.3724 20.8802 12.6431 22.2473 8.33151 22.2473H8.17961C3.42402 22.2473 1.74145 20.5648 1.74145 15.8092V8.19084C1.74145 3.43524 3.42402 1.75268 8.17961 1.75268H8.33151C12.6665 1.75268 14.3958 3.14313 14.7113 6.88217C14.7697 7.36124 15.1786 7.72346 15.6694 7.67672C16.1601 7.64167 16.5107 7.20934 16.4756 6.73028C16.0783 2.07984 13.5662 0 8.3432 0H8.1913C2.45421 0 0.000459671 2.45375 0.000459671 8.19084V15.8092C0.000459671 21.5463 2.45421 24 8.1913 24Z" fill="#F81515"/>
<path d="M8.47274 12.8762H21.7697C22.2487 12.8762 22.646 12.4789 22.646 11.9999C22.646 11.5208 22.2487 11.1235 21.7697 11.1235H8.47274C7.99367 11.1235 7.5964 11.5208 7.5964 11.9999C7.5964 12.4789 7.99367 12.8762 8.47274 12.8762Z" fill="#F81515"/>
<path d="M19.1639 16.7908C19.3859 16.7908 19.6079 16.709 19.7832 16.5337L23.6975 12.6194C24.0364 12.2806 24.0364 11.7197 23.6975 11.3809L19.7832 7.46654C19.4444 7.12769 18.8835 7.12769 18.5447 7.46654C18.2058 7.80539 18.2058 8.36625 18.5447 8.7051L21.8397 12.0001L18.5447 15.2952C18.2058 15.634 18.2058 16.1949 18.5447 16.5337C18.7082 16.709 18.9419 16.7908 19.1639 16.7908Z" fill="#F81515"/>
</svg>
