<svg width="49" height="49" viewBox="0 0 49 49" fill="none" xmlns="http://www.w3.org/2000/svg">
<path d="M46.7747 20.8458C46.7747 19.788 46.3544 18.7734 45.6064 18.0254C44.8584 17.2773 43.8438 16.8571 42.7859 16.8571H30.1815L32.0961 7.74281C32.136 7.54338 32.1559 7.32399 32.1559 7.10461C32.1559 6.28692 31.8169 5.52906 31.2784 4.99058L29.1643 2.89648L16.0414 16.0195C15.3034 16.7574 14.8647 17.7546 14.8647 18.8515V38.7952C14.8647 39.8531 15.2849 40.8677 16.033 41.6157C16.781 42.3637 17.7955 42.784 18.8534 42.784H36.8028C38.4581 42.784 39.8741 41.7868 40.4724 40.3508L46.4955 26.2905C46.6749 25.8318 46.7747 25.3531 46.7747 24.8346V20.8458ZM2.89844 42.784H10.8759V18.8515H2.89844V42.784Z" fill="white"/>
</svg>
