<svg width="20" height="21" viewBox="0 0 20 21" fill="none" xmlns="http://www.w3.org/2000/svg">
<g clip-path="url(#clip0_127_6450)">
<path d="M19.3822 13.7495L17.2155 5.94033C16.7529 4.26984 15.7447 2.80211 14.3516 1.77073C12.9585 0.739353 11.2604 0.203596 9.52758 0.248729C7.79479 0.293862 6.1269 0.917292 4.78934 2.0198C3.45178 3.1223 2.52143 4.64052 2.14635 6.33283L0.470519 13.8745C0.389429 14.2399 0.391407 14.6188 0.476307 14.9833C0.561206 15.3478 0.72686 15.6886 0.961047 15.9805C1.19523 16.2724 1.49198 16.5081 1.82939 16.67C2.1668 16.8319 2.53626 16.9161 2.91052 16.9162H5.91635C6.10761 17.8581 6.61863 18.7049 7.3628 19.3131C8.10698 19.9214 9.03856 20.2537 9.99969 20.2537C10.9608 20.2537 11.8924 19.9214 12.6366 19.3131C13.3807 18.7049 13.8918 17.8581 14.083 16.9162H16.9747C17.3598 16.916 17.7396 16.8269 18.0846 16.6557C18.4296 16.4846 18.7303 16.236 18.9634 15.9295C19.1966 15.623 19.3557 15.2668 19.4285 14.8886C19.5013 14.5105 19.4857 14.1206 19.383 13.7495H19.3822ZM9.99969 18.5828C9.48447 18.5807 8.98249 18.4194 8.56244 18.1211C8.14238 17.8228 7.82475 17.4019 7.65302 16.9162H12.3464C12.1746 17.4019 11.857 17.8228 11.4369 18.1211C11.0169 18.4194 10.5149 18.5807 9.99969 18.5828ZM17.6372 14.9203C17.5594 15.0234 17.4587 15.1068 17.3429 15.164C17.2271 15.2212 17.0996 15.2504 16.9705 15.2495H2.91052C2.78574 15.2495 2.66255 15.2214 2.55006 15.1674C2.43756 15.1134 2.33863 15.0349 2.26056 14.9375C2.1825 14.8402 2.12729 14.7265 2.09901 14.605C2.07073 14.4835 2.07011 14.3571 2.09719 14.2353L3.77302 6.69366C4.06831 5.3655 4.79911 4.17416 5.84923 3.30903C6.89936 2.4439 8.20854 1.95464 9.56866 1.919C10.9288 1.88337 12.2618 2.30342 13.3558 3.11238C14.4498 3.92134 15.2419 5.07278 15.6064 6.38366L17.773 14.1928C17.8084 14.3163 17.8145 14.4463 17.791 14.5726C17.7674 14.6989 17.7147 14.8179 17.6372 14.9203Z" fill="#222222"/>
</g>
<defs>
<clipPath id="clip0_127_6450">
<rect width="20" height="20" fill="white" transform="translate(0 0.25)"/>
</clipPath>
</defs>
</svg>
