<svg width="19" height="20" viewBox="0 0 19 20" fill="none" xmlns="http://www.w3.org/2000/svg">
<path d="M17.9068 14.3466C16.8356 13.1859 15.5356 12.2596 14.0888 11.6261C12.642 10.9926 11.0796 10.6655 9.50017 10.6655C7.92071 10.6655 6.35837 10.9926 4.91154 11.6261C3.4647 12.2596 2.16473 13.1859 1.0935 14.3466C0.928107 14.5294 0.835591 14.7667 0.833496 15.0132V19.0132C0.837002 19.2761 0.943904 19.5271 1.13106 19.7117C1.31822 19.8964 1.57057 19.9999 1.8335 19.9999H17.1668C17.4321 19.9999 17.6864 19.8945 17.8739 19.707C18.0615 19.5195 18.1668 19.2651 18.1668 18.9999V14.9999C18.1615 14.7579 18.0692 14.526 17.9068 14.3466Z" fill="#6943FF"/>
<path d="M9.50017 9.33334C12.0775 9.33334 14.1668 7.244 14.1668 4.66667C14.1668 2.08934 12.0775 0 9.50017 0C6.92284 0 4.8335 2.08934 4.8335 4.66667C4.8335 7.244 6.92284 9.33334 9.50017 9.33334Z" fill="#6943FF"/>
</svg>
