<svg width="177" height="220" viewBox="0 0 177 220" fill="none" xmlns="http://www.w3.org/2000/svg">
<g clip-path="url(#clip0_127_5525)">
<path d="M175.148 110.907C175.148 139.477 161.038 164.755 139.411 180.134C137.052 181.814 134.603 183.374 132.065 184.8C119.725 191.803 105.458 195.804 90.2508 195.804C89.4072 195.804 88.5711 195.797 87.735 195.767C86.9511 195.745 86.1598 195.715 85.3759 195.67C85.2788 195.67 85.1743 195.662 85.0773 195.647C84.3307 195.61 83.5916 195.55 82.8451 195.491C82.7854 195.491 82.7331 195.483 82.6883 195.468C82.5987 195.461 82.5166 195.461 82.427 195.446C81.7477 195.386 81.0758 195.319 80.3964 195.237H80.389C80.3068 195.229 80.2322 195.214 80.1501 195.207C79.5006 195.125 78.8436 195.05 78.2016 194.961L78.0224 194.931C77.7611 194.901 77.5073 194.864 77.2535 194.811C76.6488 194.722 76.0366 194.625 75.4319 194.513C74.7451 194.393 74.0582 194.266 73.3714 194.124C73.1698 194.095 72.9832 194.057 72.7816 194.005C72.0724 193.856 71.3707 193.706 70.6689 193.535C69.9522 193.363 69.2281 193.184 68.5189 192.997C68.4218 192.975 68.3173 192.945 68.2202 192.915C67.4737 192.714 66.7346 192.505 66.0105 192.288C65.4655 192.131 64.928 191.96 64.3904 191.788C64.3382 191.78 64.3009 191.758 64.2486 191.736C63.838 191.616 63.4349 191.474 63.0317 191.34C63.0019 191.332 62.972 191.317 62.9422 191.31C62.4569 191.153 61.9791 190.982 61.5088 190.81C61.4789 190.802 61.4565 190.802 61.4416 190.78C61.3819 190.758 61.3296 190.743 61.2699 190.72C60.71 190.519 60.1575 190.325 59.6051 190.101C59.3587 190.004 59.1198 189.914 58.866 189.809C56.7757 188.981 54.7152 188.07 52.707 187.077C28.8996 175.334 11.3856 152.751 6.62264 125.793C6.62264 125.793 6.61518 125.786 6.62264 125.771C5.76411 120.933 15.2826 115.968 15.2826 110.899C15.2826 103.703 6.21951 96.7225 7.9067 90.0558C10.8332 78.4321 16.1635 67.7565 23.3378 58.6038C35.5289 43.0458 53.028 31.8401 73.1027 27.7192C78.6346 26.5919 84.368 25.9946 90.2284 25.9946C100.717 25.9946 110.751 27.8983 120.023 31.3772C139.583 38.7009 155.708 53.0495 165.361 71.3324C169.161 78.5441 171.96 86.3679 173.558 94.6098C174.581 99.8729 175.118 105.315 175.118 110.884L175.148 110.907Z" fill="url(#paint0_linear_127_5525)"/>
<path d="M165.391 71.3477C163.778 70.7803 162.046 70.4817 160.24 70.4817C155.76 70.4817 151.714 72.3705 148.84 75.3716C148.84 75.3716 148.84 75.3641 148.84 75.3567C148.825 75.3716 148.818 75.3865 148.803 75.4015C148.071 76.1629 147.907 76.3346 147.862 76.4615C148.9 76.0435 150.042 75.827 151.177 75.7747C152.744 75.7225 154.327 75.9614 155.82 76.4391C158.829 77.3798 161.554 79.1715 163.681 81.5306C164.727 82.7325 165.622 84.0689 166.279 85.5321C166.914 87.0028 167.347 88.578 167.422 90.1756C167.638 93.3858 166.473 96.5063 164.652 98.9028C165.757 96.0808 166.339 93.1469 165.876 90.3324C165.428 87.5328 164.084 84.9498 162.188 82.8445C160.314 80.7169 157.918 79.0222 155.283 77.8875C152.834 76.8647 150.117 76.3197 147.384 76.8721C141.263 79.0371 136.873 84.8602 136.873 91.7284C136.873 97.2604 139.725 102.128 144.04 104.942C139.919 108.347 132.879 113.625 127.66 114.864C127.66 114.864 126.167 115.103 124.615 115.61C125.204 110.892 124.525 105.935 122.763 101.904C121.106 98.104 118.269 95.4089 114.872 93.6844C114.947 90.0786 114.357 86.5623 113.282 84.0987C110.579 77.9024 104.891 75.2148 98.7915 74.0502C98.2689 70.967 97.2685 68.1152 95.9919 66.1219C93.7896 62.6877 90.3928 59.933 86.5705 58.3354C86.7945 57.5888 87.4962 56.8348 89.6836 58.2533L94.9244 61.762C94.9244 61.762 101.136 65.6142 103.204 60.6646L108.101 52.1465C108.101 52.1465 112.356 54.3339 113.282 52.7213C113.282 52.7213 113.185 49.6381 113.513 46.0472C113.782 43.0312 117.433 38.3354 118.747 35.1103C118.747 35.1103 119.404 33.6545 120.038 31.3776C120.755 28.802 121.449 25.1514 121.121 21.3365C120.934 19.2088 120.426 17.0289 119.419 14.9461C119.419 14.9461 118.926 13.2066 117.186 10.8774C115.656 8.19727 113.26 5.81578 110.632 4.10619C102.845 -0.962867 92.4608 -1.12711 83.98 2.3518C74.3495 6.30104 67.1379 25.3007 67.9068 37.4918C66.1524 38.5071 64.5996 39.5224 63.4425 40.3063C61.4268 41.6724 59.3813 43.2701 57.4477 45.0468C52.1099 44.8005 46.7049 45.3529 41.591 46.8908C35.4843 48.7199 29.4746 52.4302 25.1819 57.3873C21.3297 58.4175 17.5821 60.6347 14.6855 62.8371C8.71309 67.3761 4.28607 73.7217 2.25546 80.9632C-0.424645 90.5116 0.822088 107.428 8.95199 115.685C2.05389 122.785 0.389091 134.005 2.65859 144.196C4.37565 151.885 8.4518 158.985 12.7071 165.517C14.8348 168.78 17.388 171.93 19.0677 175.446C19.4111 176.163 19.6799 176.917 19.9262 177.671C20.1203 179.716 20.1801 181.822 20.0457 183.964C20.0457 183.964 19.7844 186.353 19.6948 189.205C19.6873 189.242 19.6873 189.272 19.6873 189.317V189.384H19.6799C19.5082 190.332 19.441 191.378 19.441 192.385C19.441 193.468 19.538 194.558 19.7396 195.625C19.9262 196.708 20.2771 197.753 20.725 198.761C21.173 199.776 21.8225 200.694 22.5391 201.553C21.703 200.806 20.9042 199.978 20.292 199.007C19.6724 198.029 19.1498 196.984 18.7765 195.894C18.3958 194.789 18.1271 193.655 17.9479 192.505C17.7911 191.333 17.6866 190.198 17.7388 188.944C17.7388 188.944 17.2611 188.862 16.8729 188.832C6.50331 188.182 3.44247 199.381 4.88331 205.487C6.56304 212.55 12.5578 219.97 19.4186 219.985C25.9733 219.993 30.1465 216.484 31.6769 214.864H31.6844C33.924 212.886 34.8572 209.489 34.0434 205.42C36.9176 207.921 40.3144 209.451 43.8307 209.451C49.6612 209.451 54.3197 206.57 56.3204 205.36C56.3801 205.331 56.4399 205.293 56.4996 205.263C56.6787 205.151 56.8355 205.062 56.955 204.995C57.8434 204.524 58.2689 204.121 58.3809 203.711C60.628 201.142 61.2849 196.984 59.7844 192.146C59.5455 191.348 59.2245 190.571 58.8885 189.81C59.1349 189.907 59.3738 189.996 59.6276 190.101C60.1726 190.317 60.7325 190.519 61.2924 190.721C61.3521 190.743 61.4044 190.758 61.4641 190.78C61.4865 190.803 61.5014 190.803 61.5313 190.81C62.0016 190.982 62.4794 191.146 62.9647 191.31C62.9945 191.318 63.0244 191.333 63.0543 191.34C63.4499 191.482 63.8605 191.616 64.2711 191.736C64.3234 191.758 64.3607 191.773 64.413 191.788C64.9505 191.96 65.488 192.124 66.033 192.288C66.7571 192.505 67.4962 192.714 68.2428 192.915C68.3398 192.945 68.4443 192.975 68.5414 192.998C69.2506 193.184 69.9748 193.363 70.6914 193.535C71.3857 193.707 72.095 193.856 72.8042 194.005C73.0057 194.058 73.1924 194.095 73.3939 194.125C74.0808 194.267 74.7676 194.394 75.4544 194.513C76.0591 194.625 76.6713 194.722 77.276 194.812C77.5224 194.864 77.7836 194.901 78.0449 194.931L78.2241 194.961C78.8736 195.051 79.5306 195.133 80.1726 195.207C80.2547 195.215 80.3294 195.23 80.4115 195.237H80.419C81.0983 195.319 81.7702 195.387 82.4496 195.446C82.5391 195.454 82.6213 195.454 82.7109 195.469C82.7631 195.476 82.8079 195.491 82.8676 195.491C83.6142 195.551 84.3533 195.61 85.0998 195.648C85.1969 195.655 85.3014 195.67 85.3984 195.67C86.1823 195.722 86.9736 195.752 87.7575 195.767C88.5936 195.797 89.4298 195.805 90.2734 195.805C105.488 195.805 119.755 191.803 132.087 184.8C126.13 177.178 117.97 171.84 108.228 156.29C107.22 151.982 94.2077 135.036 93.4537 129.623C94.1181 125.644 92.4085 121.262 91.4455 120.635C91.4455 120.635 94.3794 115.82 94.0136 112.102C94.3719 114.125 95.2305 118.925 95.5888 119.828C95.5888 119.828 97.7762 135.827 111.938 142.038C111.938 142.038 116.679 144.308 121.337 142.621C127.384 144.547 134.768 141.262 138.986 136.514C142.046 133.065 144.017 129.086 145.914 124.927C146.899 122.77 148.138 120.515 149.057 118.201C151.057 115.028 153.088 111.43 155.104 107.331C159.254 106.697 162.875 104.427 165.279 101.21C168.758 100.038 171.699 97.6859 173.603 94.64C175.133 92.2137 176.022 89.3395 176.022 86.2637C176.022 79.3582 171.595 73.4977 165.406 71.3626L165.391 71.3477ZM43.7262 165.719C42.2853 168.884 41.3297 172.281 40.7922 175.782C40.7176 175.782 40.6355 175.775 40.5608 175.775C40.6355 175.775 40.7176 175.775 40.7922 175.782C40.7922 175.782 40.7922 175.79 40.7922 175.797C38.8363 175.782 37.5149 176.178 36.507 176.633C36.089 176.82 35.7232 177.021 35.3798 177.201C35.0214 177.328 34.6705 177.469 34.3346 177.619C33.9837 178.164 33.6552 178.776 33.379 179.373C32.9908 180.209 32.6623 181.075 32.4234 181.964C32.2069 182.859 32.0726 183.778 32.0726 184.711C32.095 185.644 32.2816 186.57 32.6175 187.466C32.1323 186.652 31.759 185.734 31.5724 184.771C31.4007 183.793 31.3633 182.8 31.4455 181.807C31.5276 180.814 31.7142 179.836 31.9755 178.873C32.1621 178.194 32.3712 177.559 32.6399 176.902C32.095 175.625 31.5798 174.311 31.0946 172.99C31.2439 170.84 31.4305 168.675 32.0278 166.622C33.7523 160.657 34.3719 154.431 35.0214 148.257C35.8725 140.232 33.6776 133.505 28.8848 128.362C29.5268 127.122 30.3331 125.353 31.0573 123.195C32.8639 126.383 34.9841 129.339 36.8579 131.788C39.2095 134.871 42.0166 137.947 45.2118 140.448C45.3088 143.337 44.5922 146.182 44.5548 149.063C44.5175 151.281 45.264 157.574 45.8538 161.822C45.0252 163.128 44.301 164.442 43.7112 165.726L43.7262 165.719Z" fill="white"/>
</g>
<defs>
<linearGradient id="paint0_linear_127_5525" x1="90.858" y1="25.9946" x2="90.858" y2="195.804" gradientUnits="userSpaceOnUse">
<stop stop-color="#8466FF" stop-opacity="0"/>
<stop offset="1" stop-color="#8263FF"/>
</linearGradient>
<clipPath id="clip0_127_5525">
<rect width="175.013" height="220" fill="white" transform="translate(0.993652)"/>
</clipPath>
</defs>
</svg>
