<svg width="18" height="20" viewBox="0 0 18 20" fill="none" xmlns="http://www.w3.org/2000/svg">
<g clip-path="url(#clip0_247_2771)">
<path d="M1.97601 16.0775C1.87465 15.7813 1.7785 15.4996 1.674 15.194C1.81299 15.1527 1.94571 15.1104 2.07999 15.0743C3.26138 14.7561 4.44329 14.4395 5.62468 14.1218C5.69365 14.103 5.76419 14.0873 5.83002 14.0601C5.99148 13.9932 6.06567 13.8386 6.01917 13.6787C5.97476 13.5266 5.81592 13.4279 5.64924 13.4681C5.39007 13.5303 5.13352 13.6055 4.87593 13.675C3.80792 13.9629 2.73939 14.2514 1.67139 14.5387C1.60921 14.5555 1.54599 14.567 1.46814 14.5842C1.256 13.9352 1.0402 13.2947 0.83747 12.6504C0.544343 11.7193 0.232407 10.7924 0.0986449 9.81946C-0.111925 8.28956 -0.0157841 6.80094 0.713113 5.40323C1.01251 4.82847 1.4185 4.33941 1.95616 3.96947C3.10776 3.17735 4.46106 3.28237 5.52279 4.25528C6.3797 5.04061 6.85936 6.04017 7.118 7.15467C7.43934 8.53775 7.34895 9.90985 6.98842 11.2741C6.83167 11.8677 6.69321 12.4722 6.8139 13.0883C6.90639 13.5601 7.04955 14.0215 7.17025 14.4875C7.18645 14.5497 7.2016 14.6119 7.22146 14.6924C5.46897 15.1553 3.72902 15.6151 1.97653 16.078L1.97601 16.0775ZM1.25182 8.70756C1.27324 9.78915 1.56166 10.8169 1.89973 11.8316C1.93003 11.9231 2.06588 12.0213 2.16673 12.0396C2.40656 12.0824 2.54293 11.876 2.47814 11.6164C2.29631 10.8849 2.10298 10.1554 1.94571 9.41817C1.88092 9.11564 1.89555 8.79587 1.87778 8.48393C1.86576 8.27075 1.74402 8.1349 1.5601 8.13751C1.37565 8.14012 1.25704 8.27597 1.25182 8.49177C1.25025 8.56335 1.25182 8.63494 1.25182 8.70704V8.70756ZM2.81464 12.8322C2.81516 12.6629 2.67408 12.5203 2.50427 12.5198C2.33445 12.5193 2.19285 12.6603 2.19233 12.8301C2.19181 13 2.33288 13.1421 2.5027 13.1426C2.67199 13.1431 2.81464 13.0015 2.81516 12.8322H2.81464Z" fill="url(#paint0_linear_247_2771)"/>
<path d="M16.0384 11.1432C14.2598 10.664 12.4906 10.1875 10.7088 9.70786C10.8713 8.67225 10.4518 7.73121 10.3091 6.75099C10.0583 5.03194 10.2412 3.38082 11.1504 1.8666C11.3693 1.50241 11.6488 1.16173 11.9535 0.864428C13.1275 -0.28143 14.7536 -0.284043 15.9538 0.836212C16.7318 1.56197 17.1482 2.4842 17.3635 3.50518C17.6692 4.95513 17.5291 6.38576 17.1137 7.79235C16.7966 8.86558 16.4407 9.92731 16.1011 10.9937C16.086 11.0413 16.0624 11.0868 16.0389 11.1437L16.0384 11.1432ZM16.2699 5.26603C16.2699 5.20751 16.2699 5.14898 16.2699 5.09046C16.2699 5.07113 16.2704 5.05128 16.2699 5.03194C16.2594 4.8313 16.1387 4.69911 15.9626 4.69545C15.7782 4.69179 15.6471 4.82608 15.646 5.03874C15.6418 5.77234 15.5331 6.49026 15.333 7.19408C15.193 7.68785 15.0357 8.17639 14.8926 8.66912C14.8393 8.85304 14.9364 9.01606 15.1104 9.06518C15.2928 9.1169 15.4182 9.04898 15.4851 8.85304C15.552 8.65605 15.61 8.45645 15.6732 8.25842C15.9841 7.28343 16.2432 6.29798 16.2699 5.26603ZM15.7876 4.06687C15.9585 4.06165 16.0896 3.92057 16.0854 3.74605C16.0813 3.57258 15.9407 3.4383 15.7698 3.44352C15.6011 3.44875 15.4631 3.59505 15.4684 3.76382C15.4736 3.93259 15.6199 4.07158 15.7876 4.06687Z" fill="url(#paint1_linear_247_2771)"/>
<path d="M10.5704 10.3184C12.3386 10.7949 14.0895 11.2672 15.8498 11.7417C15.7474 12.0452 15.6518 12.3279 15.5494 12.631C15.1298 12.5207 14.717 12.4126 14.3042 12.3039C13.4296 12.0735 12.5549 11.842 11.6802 11.6121C11.4383 11.5483 11.2716 11.6236 11.2256 11.8112C11.1776 12.0071 11.2789 12.1466 11.5208 12.2109C12.7409 12.5354 13.9615 12.8588 15.1815 13.1833C15.2306 13.1963 15.2787 13.2141 15.3576 13.2392C15.0101 14.0245 14.9166 14.8997 14.369 15.5894C13.7363 16.3868 12.6427 16.7389 11.663 16.4636C10.6451 16.1772 9.90473 15.3208 9.76992 14.2967C9.69364 13.7188 9.82688 13.1655 9.95332 12.6158C10.1237 11.8739 10.3353 11.1418 10.5296 10.4056C10.5359 10.3816 10.5511 10.3602 10.5709 10.3189L10.5704 10.3184Z" fill="url(#paint2_linear_247_2771)"/>
<path d="M2.16947 16.6735C3.91934 16.2111 5.64518 15.7549 7.39767 15.292C7.56488 16.1818 7.90973 17.034 7.71274 17.9531C7.47918 19.0431 6.56741 19.8603 5.4576 19.9841C4.35616 20.1069 3.26099 19.505 2.82103 18.485C2.57023 17.903 2.3884 17.2906 2.16895 16.6735H2.16947Z" fill="url(#paint3_linear_247_2771)"/>
</g>
<defs>
<linearGradient id="paint0_linear_247_2771" x1="0.000732422" y1="8.81877" x2="7.31549" y2="8.80654" gradientUnits="userSpaceOnUse">
<stop stop-color="#8769FF"/>
<stop offset="0.98018" stop-color="#6943FF"/>
</linearGradient>
<linearGradient id="paint1_linear_247_2771" x1="10.2065" y1="4.74185" x2="17.5283" y2="4.72796" gradientUnits="userSpaceOnUse">
<stop stop-color="#8769FF"/>
<stop offset="0.98018" stop-color="#6943FF"/>
</linearGradient>
<linearGradient id="paint2_linear_247_2771" x1="9.74756" y1="12.9725" x2="15.8498" y2="12.9553" gradientUnits="userSpaceOnUse">
<stop stop-color="#8769FF"/>
<stop offset="0.98018" stop-color="#6943FF"/>
</linearGradient>
<linearGradient id="paint3_linear_247_2771" x1="2.16895" y1="17.2952" x2="7.77177" y2="17.2759" gradientUnits="userSpaceOnUse">
<stop stop-color="#8769FF"/>
<stop offset="0.98018" stop-color="#6943FF"/>
</linearGradient>
<clipPath id="clip0_247_2771">
<rect width="17.5285" height="20" fill="white"/>
</clipPath>
</defs>
</svg>
