<svg width="20" height="30" viewBox="0 0 20 30" fill="none" xmlns="http://www.w3.org/2000/svg">
<path d="M2.26494 16.2536C1.49623 15.6944 0.755566 15.1562 0 14.6075C0.872144 13.4075 1.74692 12.2339 2.58575 11.0348C3.00473 10.4361 3.49208 9.93563 4.09513 9.51753C5.27143 8.70148 6.45649 7.89069 7.56881 6.99138C9.19126 5.68009 11.5053 6.40586 12.4721 7.90296C12.6772 8.22027 12.8578 8.57088 12.9647 8.93201C13.6352 11.1996 15.2928 12.3925 17.4315 13.0438C18.0003 13.2165 18.6095 13.255 19.2284 13.3593V16.0555C17.4797 16.1888 14.1331 15.4244 11.6929 12.5599C11.607 13.028 11.5263 13.4575 11.4501 13.8888C11.2213 15.179 11.0004 16.471 10.7629 17.7595C10.7199 17.9935 10.7769 18.1338 10.961 18.2845C11.7823 18.9551 12.5922 19.6397 13.3995 20.3286C13.5099 20.4233 13.6142 20.5521 13.6633 20.6871C14.6599 23.4017 15.6486 26.1198 16.6374 28.8379C16.6593 28.8975 16.6689 28.9615 16.6908 29.0509C15.8248 29.3665 14.9667 29.6794 14.0832 30.0011C13.7387 29.0588 13.4021 28.1385 13.0673 27.2181C12.4844 25.6184 11.9059 24.017 11.3133 22.4209C11.2528 22.257 11.138 22.0931 11.0048 21.98C9.5033 20.7081 7.98954 19.4494 6.4863 18.1794C5.62993 17.4553 5.29948 16.5324 5.49582 15.4244C5.71758 14.1771 5.93671 12.9298 6.15672 11.6825C6.16373 11.6413 6.16198 11.5975 6.17075 11.4389C5.76579 11.7869 5.36434 12.0314 5.09876 12.3803C4.13896 13.6398 3.22474 14.9345 2.26407 16.2563L2.26494 16.2536Z" fill="#6943FF"/>
<path d="M2.89154 29.4118C2.16666 28.8035 1.46631 28.2163 0.747559 27.6132C1.35587 26.8874 1.94489 26.1853 2.53392 25.4832C3.26494 24.612 3.99947 23.7442 4.72436 22.8677C4.83919 22.7283 4.93473 22.5609 4.99433 22.3909C5.31865 21.4784 5.62894 20.5615 5.95939 19.5991C6.80962 20.31 7.62742 20.9946 8.47589 21.7037C7.91842 22.7152 7.62303 23.8406 6.83153 24.7382C5.49395 26.2546 4.22036 27.8271 2.89154 29.411V29.4118Z" fill="#6943FF"/>
<path d="M11.5308 5.59065C9.98991 5.57926 8.7356 4.31443 8.74963 2.78314C8.76365 1.23344 10.0408 -0.0164895 11.5931 0.000164511C13.1121 0.0168185 14.355 1.27463 14.3576 2.79628C14.3603 4.34511 13.0884 5.60205 11.5308 5.59065Z" fill="#6943FF"/>
</svg>
