<svg width="37" height="30" viewBox="0 0 37 30" fill="none" xmlns="http://www.w3.org/2000/svg">
<path d="M8.78119 5.83572C7.98252 5.83572 7.20012 5.83572 6.4188 5.83572C6.01351 5.83572 5.60713 5.84547 5.20184 5.83247C4.77163 5.81838 4.48012 5.53121 4.49204 5.1606C4.50396 4.7954 4.77813 4.55158 5.20184 4.53966C5.4565 4.53315 5.71225 4.53857 6.03626 4.53857C5.91164 3.38772 5.81953 2.27588 5.02412 1.22148C4.83881 1.54007 4.67084 1.76114 4.57223 2.0093C3.98922 3.48092 3.93721 5.01539 4.13118 6.55853C4.20812 7.16863 4.39776 7.76789 4.57765 8.35958C4.65242 8.60448 4.83448 8.81688 4.9992 9.09755C5.60171 8.52754 5.6754 7.81016 5.88455 7.15454H7.17411C7.0159 8.03339 6.82625 8.87107 6.30935 9.59279C5.95607 10.0859 5.48793 10.3481 4.86049 10.3329C4.10409 10.3145 3.34552 10.3048 2.58913 10.3351C1.87282 10.3644 1.37434 10.0458 0.998306 9.47683C0.501988 8.72802 0.274418 7.8806 0.147629 7.00716C-0.103781 5.27438 -0.0658525 3.55677 0.510657 1.88251C0.614689 1.578 0.758815 1.28216 0.922449 1.00583C1.31582 0.339373 1.87824 -0.0258222 2.68991 0.0121061C3.37803 0.044616 4.06941 0.041365 4.75862 0.0121061C5.5226 -0.0193202 6.05035 0.326369 6.42855 0.951643C6.92162 1.76656 7.11668 2.67575 7.2413 3.60445C7.28031 3.89813 7.30632 4.19288 7.34316 4.53424C7.88608 4.53424 8.42358 4.54616 8.95999 4.52232C9.04994 4.51798 9.1583 4.37386 9.21357 4.26982C9.46715 3.7941 9.67304 3.29019 9.95588 2.83397C10.2896 2.29539 10.7708 1.94645 11.4438 1.91285C12.5664 1.85542 13.5948 1.52165 14.5961 0.987404C15.9312 0.275437 17.0734 0.855197 17.4158 2.31814C17.5665 2.96184 17.7041 3.60987 17.8688 4.25032C17.897 4.35977 18.0313 4.52123 18.1202 4.5234C18.9037 4.54508 19.6883 4.53641 20.4728 4.53641C20.5921 4.53641 20.7113 4.53641 20.8109 4.53641C20.9475 3.77134 21.0277 3.03011 21.2217 2.3214C21.369 1.78281 21.6172 1.2594 21.9 0.775006C22.2121 0.241843 22.7193 -0.0160692 23.3662 0.00452044C24.0955 0.0272774 24.8281 0.034863 25.5563 0.00235306C26.3561 -0.0334079 26.8936 0.340457 27.288 0.986321C27.7247 1.70262 27.9328 2.49803 28.0531 3.31837C28.2958 4.96879 28.246 6.60621 27.7702 8.21545C27.6792 8.52429 27.5546 8.82772 27.4116 9.11597C27.0139 9.92114 26.4232 10.399 25.4545 10.3253C24.7826 10.2744 24.101 10.2831 23.4269 10.3199C22.6705 10.3622 22.1601 10.0154 21.7873 9.40965C21.2737 8.57414 21.0786 7.63677 20.9551 6.67989C20.9204 6.41331 20.8955 6.14565 20.8608 5.83464C19.8963 5.83464 18.9405 5.82922 17.9847 5.84439C17.9002 5.84547 17.7821 5.96359 17.7388 6.0557C17.1958 7.20439 16.3647 8.08107 15.2799 8.73236C14.5268 9.18425 14.154 9.87887 14.0597 10.7306C13.9373 11.8436 14.1724 12.8958 14.7663 13.8343C15.6982 15.307 16.6789 16.7482 17.638 18.2036C17.6672 18.2469 17.6932 18.2924 17.7366 18.3607C18.83 16.4816 20.4577 15.6797 22.5351 15.7578C23.6968 15.8022 24.7956 16.1295 25.8381 16.6409C25.9594 16.7005 26.0776 16.7677 26.2011 16.8197C26.5728 16.9769 26.9109 16.8772 27.0778 16.5662C27.2501 16.2454 27.1471 15.8347 26.7776 15.6797C25.9345 15.3243 25.0719 15.0133 24.2147 14.6914C24.0641 14.6351 23.9016 14.6123 23.6621 14.5549C23.9156 14.1572 24.1259 13.7681 24.3914 13.4214C26.7083 10.3925 31.2087 9.88429 34.2473 12.2629C35.6832 13.3867 36.6108 14.7814 36.7668 16.6149C36.9424 18.6717 36.0765 20.2875 34.5226 21.5684C34.1498 21.8761 33.751 22.1839 33.3143 22.3779C32.3531 22.8048 31.5371 23.442 30.6799 24.0272C27.3379 26.3094 23.7173 27.9392 19.7013 28.6024C18.1495 28.8593 16.5857 28.96 15.0144 28.8051C14.6839 28.7726 14.4574 28.8419 14.2244 29.1269C13.1668 30.4197 10.9951 30.2626 10.2929 28.7498C9.0857 26.1479 7.76254 23.5753 7.34641 20.6776C7.13402 19.1973 7.16653 17.7127 7.23913 16.2259C7.35942 13.7811 7.54256 11.3429 8.05622 8.94367C8.25886 7.99438 8.51244 7.05484 8.74109 6.11097C8.75951 6.03403 8.76276 5.95384 8.77793 5.83247L8.78119 5.83572ZM25.941 9.06504C26.0851 8.81363 26.2629 8.61207 26.3246 8.37908C26.5208 7.63894 26.7418 6.89446 26.8275 6.13698C26.9835 4.75531 26.8806 3.38122 26.3756 2.06673C26.2705 1.79148 26.0851 1.54658 25.9291 1.27458C24.5561 2.46661 24.5572 7.87518 25.9399 9.06504H25.941Z" fill="#6943FF"/>
<path d="M25.2354 5.15746C25.2375 4.64488 25.4705 4.36421 25.8888 4.37072C26.3028 4.37722 26.5358 4.66981 26.5325 5.17696C26.5293 5.66895 26.2703 5.97887 25.8682 5.97237C25.4662 5.96587 25.2332 5.66678 25.2354 5.15637V5.15746Z" fill="#6943FF"/>
</svg>
